<?xml version="1.0" standalone="no"?>
<!DOCTYPE svg PUBLIC "-//W3C//DTD SVG 20010904//EN"
 "http://www.w3.org/TR/2001/REC-SVG-20010904/DTD/svg10.dtd">
<svg version="1.0" xmlns="http://www.w3.org/2000/svg"
 width="2048.000000pt" height="2048.000000pt" viewBox="0 0 2048.000000 2048.000000"
 preserveAspectRatio="xMidYMid meet">
<metadata>
Created by potrace 1.11, written by Peter Selinger 2001-2013
</metadata>
<g transform="translate(0.000000,2048.000000) scale(0.100000,-0.100000)"
fill="#000000" stroke="none">
<path d="M10343 11300 c2 -3264 6 -5953 9 -5976 3 -23 9 -70 12 -105 4 -35 9
-77 12 -92 3 -16 7 -38 9 -50 22 -176 83 -403 157 -592 135 -341 335 -608 634
-845 188 -149 545 -304 809 -351 136 -24 239 -38 330 -46 174 -13 558 -7 685
12 14 2 52 6 85 10 33 3 71 8 85 10 14 2 45 7 70 10 99 13 441 78 570 109 30
8 167 45 220 61 30 9 62 18 70 20 95 24 389 141 544 216 l106 52 -6 46 c-3 25
-7 53 -9 61 -2 8 -7 35 -10 60 -3 25 -8 52 -10 60 -3 8 -7 35 -10 60 -3 25 -8
58 -11 73 -3 16 -7 38 -9 50 -12 86 -46 303 -70 447 -2 14 -7 43 -10 65 -3 22
-12 78 -20 125 -8 47 -16 103 -20 125 -6 45 -35 230 -40 260 -1 11 -6 36 -9
55 -14 83 -16 97 -21 135 -3 22 -7 51 -10 65 -3 14 -7 41 -10 60 -3 19 -7 46
-10 60 -2 14 -7 45 -10 70 -4 25 -10 48 -13 52 -4 4 -41 -9 -82 -28 -41 -20
-88 -42 -105 -49 -16 -7 -46 -20 -65 -28 -37 -16 -233 -81 -237 -79 -2 1 -21
-5 -44 -13 -38 -14 -147 -36 -249 -51 -64 -9 -236 -6 -300 6 -103 19 -114 22
-170 43 -258 96 -439 318 -525 642 -7 28 -21 100 -31 160 -17 105 -18 375 -21
5525 -1 2978 -2 5420 -2 5425 -1 7 -385 10 -1136 10 l-1135 0 3 -5935z"/>
<path d="M5730 10120 l0 -6735 1170 0 1170 0 1 115 c0 149 0 13332 -1 13345 0
7 -396 10 -1170 10 l-1170 0 0 -6735z"/>
</g>
</svg>
